# This file uses centimeters as units for non-parametric coordinates.

mtllib StraightTube.mtl
g default
v 0.951057 0.309017 -1.000000
v 0.809017 0.587786 -1.000000
v 0.587786 0.809017 -1.000000
v 0.309017 0.951057 -1.000000
v 0.000000 1.000000 -1.000000
v -0.309017 0.951057 -1.000000
v -0.587786 0.809017 -1.000000
v -0.809017 0.587785 -1.000000
v -0.951056 0.309017 -1.000000
v -1.000000 -0.000000 -1.000000
v -0.951056 -0.309017 -1.000000
v -0.809017 -0.587785 -1.000000
v -0.587786 -0.809017 -1.000000
v 0.587786 -0.809017 -1.000000
v 0.809017 -0.587785 -1.000000
v 0.951056 -0.309017 -1.000000
v 1.000000 -0.000000 -1.000000
v 0.951057 0.309017 1.000000
v 0.809017 0.587786 1.000000
v 0.587786 0.809017 1.000000
v 0.309017 0.951057 1.000000
v 0.000000 1.000000 1.000000
v -0.309017 0.951057 1.000000
v -0.587786 0.809017 1.000000
v -0.809017 0.587785 1.000000
v -0.951056 0.309017 1.000000
v -1.000000 0.000000 1.000000
v -0.951056 -0.309017 1.000000
v -0.809017 -0.587785 1.000000
v -0.587786 -0.809017 1.000000
v 0.587786 -0.809017 1.000000
v 0.809017 -0.587785 1.000000
v 0.951056 -0.309017 1.000000
v 1.000000 0.000000 1.000000
v 0.960450 0.312069 -1.000000
v 0.817007 0.593591 -1.000000
v 0.817007 0.593591 1.000000
v 0.960450 0.312069 1.000000
v 0.593591 0.817008 -1.000000
v 0.593591 0.817008 1.000000
v 0.312069 0.960450 -1.000000
v 0.312069 0.960450 1.000000
v 0.000000 1.009877 -1.000000
v 0.000000 1.009877 1.000000
v -0.312069 0.960450 -1.000000
v -0.312069 0.960450 1.000000
v -0.593591 0.817008 -1.000000
v -0.593591 0.817008 1.000000
v -0.817007 0.593591 -1.000000
v -0.817007 0.593591 1.000000
v -0.960449 0.312069 -1.000000
v -0.960449 0.312069 1.000000
v -1.009877 0.000000 -1.000000
v -1.009877 0.000000 1.000000
v -0.960449 -0.312069 -1.000000
v -0.960449 -0.312069 1.000000
v -0.817007 -0.593591 -1.000000
v -0.817007 -0.593591 1.000000
v -0.591321 -0.817553 -1.000000
v -0.591321 -0.817553 1.000000
v 0.591321 -0.817553 -1.000000
v 0.591321 -0.817553 1.000000
v 0.817007 -0.593591 -1.000000
v 0.817007 -0.593591 1.000000
v 0.960449 -0.312069 -1.000000
v 0.960449 -0.312069 1.000000
v 1.009876 -0.000000 -1.000000
v 1.009876 -0.000000 1.000000
vt 0.949021 0.948528
vt 0.949119 0.948528
vt 0.949217 0.948528
vt 0.949315 0.948528
vt 0.949413 0.948528
vt 0.949510 0.948528
vt 0.949608 0.948528
vt 0.949706 0.948528
vt 0.949804 0.948528
vt 0.949902 0.948528
vt 0.950000 0.948528
vt 0.950098 0.948528
vt 0.950196 0.948528
vt 0.950587 0.948528
vt 0.950685 0.948528
vt 0.950783 0.948528
vt 0.950881 0.948528
vt 0.950979 0.948528
vt 0.949021 0.951472
vt 0.949119 0.951472
vt 0.949217 0.951472
vt 0.949315 0.951472
vt 0.949413 0.951472
vt 0.949510 0.951472
vt 0.949608 0.951472
vt 0.949706 0.951472
vt 0.949804 0.951472
vt 0.949902 0.951472
vt 0.950000 0.951472
vt 0.950098 0.951472
vt 0.950196 0.951472
vt 0.950587 0.951472
vt 0.950685 0.951472
vt 0.950783 0.951472
vt 0.950881 0.951472
vt 0.950979 0.951472
vt 0.904184 0.161042
vt 0.123808 0.159974
vt 0.124221 0.110620
vt 0.904598 0.111688
vt 0.124635 0.061266
vt 0.905011 0.062334
vt 0.125048 0.011912
vt 0.897256 0.988088
vt 0.117293 0.937666
vt 0.897669 0.938734
vt 0.117706 0.888312
vt 0.898082 0.889380
vt 0.118120 0.838958
vt 0.898496 0.840026
vt 0.118533 0.789604
vt 0.898910 0.790672
vt 0.118947 0.740249
vt 0.899323 0.741318
vt 0.119360 0.690895
vt 0.899737 0.691964
vt 0.119774 0.641541
vt 0.900150 0.642610
vt 0.120187 0.592187
vt 0.900563 0.593256
vt 0.120601 0.542833
vt 0.900977 0.543902
vt 0.122154 0.357390
vt 0.902530 0.358459
vt 0.122568 0.308036
vt 0.902944 0.309105
vt 0.122981 0.258682
vt 0.903357 0.259751
vt 0.123394 0.209328
vt 0.903771 0.210397
vt 0.950979 0.951472
vt 0.950979 0.948528
vt 0.949021 0.948528
vt 0.949119 0.948528
vt 0.949119 0.951472
vt 0.949021 0.951472
vt 0.949217 0.948528
vt 0.949217 0.951472
vt 0.949315 0.948528
vt 0.949315 0.951472
vt 0.949413 0.948528
vt 0.949413 0.951472
vt 0.949510 0.948528
vt 0.949510 0.951472
vt 0.949608 0.948528
vt 0.949608 0.951472
vt 0.949706 0.948528
vt 0.949706 0.951472
vt 0.949804 0.948528
vt 0.949804 0.951472
vt 0.949902 0.948528
vt 0.949902 0.951472
vt 0.950000 0.948528
vt 0.950000 0.951472
vt 0.950098 0.948528
vt 0.950098 0.951472
vt 0.950196 0.948528
vt 0.950196 0.951472
vt 0.950587 0.948528
vt 0.950587 0.951472
vt 0.950685 0.948528
vt 0.950685 0.951472
vt 0.950783 0.948528
vt 0.950783 0.951472
vt 0.950881 0.948528
vt 0.950881 0.951472
vt 0.905425 0.012980
vt 0.116879 0.987020
vn 0.951057 0.309017 -0.000000
vn 0.809017 0.587785 -0.000000
vn 0.809017 0.587785 -0.000000
vn 0.951057 0.309017 -0.000000
vn 0.587786 0.809017 -0.000000
vn 0.587786 0.809017 -0.000000
vn 0.309017 0.951056 -0.000000
vn 0.309017 0.951056 -0.000000
vn -0.000000 1.000000 -0.000000
vn -0.000000 1.000000 -0.000000
vn -0.309017 0.951056 -0.000000
vn -0.309017 0.951056 -0.000000
vn -0.587786 0.809017 -0.000000
vn -0.587786 0.809017 -0.000000
vn -0.809018 0.587784 -0.000000
vn -0.809018 0.587784 -0.000000
vn -0.951056 0.309018 -0.000000
vn -0.951056 0.309018 -0.000000
vn -1.000000 -0.000000 -0.000000
vn -1.000000 -0.000000 -0.000000
vn -0.951056 -0.309018 -0.000000
vn -0.951056 -0.309018 -0.000000
vn -0.807592 -0.589742 0.000000
vn -0.807592 -0.589742 0.000000
vn -0.157053 -0.987590 0.000000
vn -0.157053 -0.987590 0.000000
vn 0.157053 -0.987590 0.000000
vn 0.157053 -0.987590 0.000000
vn 0.807592 -0.589742 0.000000
vn 0.807592 -0.589742 0.000000
vn 0.951057 -0.309017 0.000000
vn 0.951057 -0.309017 0.000000
vn 1.000000 -0.000002 0.000000
vn 1.000000 -0.000002 0.000000
vn -0.951057 -0.309017 0.000000
vn -0.951057 -0.309017 0.000000
vn -0.809017 -0.587786 0.000000
vn -0.809017 -0.587786 0.000000
vn -0.587785 -0.809017 0.000000
vn -0.587785 -0.809017 0.000000
vn -0.309017 -0.951057 0.000000
vn -0.309017 -0.951057 0.000000
vn 0.000000 -1.000000 0.000000
vn 0.000000 -1.000000 0.000000
vn 0.309017 -0.951057 0.000000
vn 0.309017 -0.951057 0.000000
vn 0.587786 -0.809017 0.000000
vn 0.587786 -0.809017 0.000000
vn 0.809018 -0.587785 0.000000
vn 0.809018 -0.587785 0.000000
vn 0.951057 -0.309017 0.000000
vn 0.951057 -0.309017 0.000000
vn 1.000000 0.000000 0.000000
vn 1.000000 0.000000 0.000000
vn 0.951057 0.309017 -0.000000
vn 0.951057 0.309017 -0.000000
vn 0.809017 0.587785 -0.000000
vn 0.809017 0.587785 -0.000000
vn 0.156434 0.987688 -0.000000
vn 0.156434 0.987688 -0.000000
vn -0.156434 0.987688 -0.000000
vn -0.156434 0.987688 -0.000000
vn -0.809017 0.587785 -0.000000
vn -0.809017 0.587785 -0.000000
vn -0.951057 0.309017 -0.000000
vn -0.951057 0.309017 -0.000000
vn -1.000000 0.000002 -0.000000
vn -1.000000 0.000002 -0.000000
vn 0.000000 -0.000000 -1.000000
vn 0.000000 -0.000000 -1.000000
vn 0.000000 -0.000000 -1.000000
vn 0.000000 -0.000000 -1.000000
vn 0.000000 0.000000 1.000000
vn 0.000000 0.000000 1.000000
vn 0.000000 0.000000 1.000000
vn 0.000000 0.000000 1.000000
vn 0.000000 -0.000000 -1.000000
vn 0.000000 -0.000000 -1.000000
vn 0.000000 0.000000 1.000000
vn 0.000000 0.000000 1.000000
vn 0.000000 -0.000000 -1.000000
vn 0.000000 -0.000000 -1.000000
vn 0.000000 0.000000 1.000000
vn 0.000000 0.000000 1.000000
vn 0.000000 -0.000000 -1.000000
vn 0.000000 -0.000000 -1.000000
vn 0.000000 0.000000 1.000000
vn 0.000000 0.000000 1.000000
vn 0.000000 -0.000000 -1.000000
vn 0.000000 -0.000000 -1.000000
vn 0.000000 0.000000 1.000000
vn 0.000000 0.000000 1.000000
vn 0.000000 -0.000000 -1.000000
vn 0.000000 -0.000000 -1.000000
vn 0.000000 0.000000 1.000000
vn 0.000000 0.000000 1.000000
vn 0.000000 -0.000000 -1.000000
vn 0.000000 -0.000000 -1.000000
vn 0.000000 0.000000 1.000000
vn 0.000000 0.000000 1.000000
vn 0.000000 -0.000000 -1.000000
vn 0.000000 -0.000000 -1.000000
vn 0.000000 0.000000 1.000000
vn 0.000000 0.000000 1.000000
vn 0.000000 -0.000000 -1.000000
vn 0.000000 -0.000000 -1.000000
vn 0.000000 0.000000 1.000000
vn 0.000000 0.000000 1.000000
vn 0.000000 -0.000000 -1.000000
vn 0.000000 -0.000000 -1.000000
vn 0.000000 0.000000 1.000000
vn 0.000000 0.000000 1.000000
vn 0.000000 -0.000000 -1.000000
vn 0.000000 -0.000000 -1.000000
vn 0.000000 0.000000 1.000000
vn 0.000000 0.000000 1.000000
vn 0.000000 -0.000000 -1.000000
vn 0.000000 -0.000000 -1.000000
vn 0.000000 0.000000 1.000000
vn 0.000000 0.000000 1.000000
vn 0.000000 -0.000000 -1.000000
vn 0.000000 -0.000000 -1.000000
vn 0.000000 0.000000 1.000000
vn 0.000000 0.000000 1.000000
vn 0.000000 -0.000000 -1.000000
vn 0.000000 -0.000000 -1.000000
vn 0.000000 0.000000 1.000000
vn 0.000000 0.000000 1.000000
vn 0.000000 -0.000000 -1.000000
vn 0.000000 -0.000000 -1.000000
vn 0.000000 0.000000 1.000000
vn 0.000000 0.000000 1.000000
vn 0.000000 -0.000000 -1.000000
vn 0.000000 -0.000000 -1.000000
vn 0.000000 0.000000 1.000000
vn 0.000000 0.000000 1.000000
s 1
g pCylinder32
usemtl initialShadingGroup
f 35/73/1 36/74/2 37/75/3 38/76/4
f 36/74/2 39/77/5 40/78/6 37/75/3
f 39/77/5 41/79/7 42/80/8 40/78/6
f 41/79/7 43/81/9 44/82/10 42/80/8
f 43/81/9 45/83/11 46/84/12 44/82/10
f 45/83/11 47/85/13 48/86/14 46/84/12
f 47/85/13 49/87/15 50/88/16 48/86/14
f 49/87/15 51/89/17 52/90/18 50/88/16
f 51/89/17 53/91/19 54/92/20 52/90/18
f 53/91/19 55/93/21 56/94/22 54/92/20
f 55/93/21 57/95/23 58/96/24 56/94/22
f 57/95/23 59/97/25 60/98/26 58/96/24
f 60/98/26 59/97/25 61/99/27 62/100/28
f 61/99/27 63/101/29 64/102/30 62/100/28
f 63/101/29 65/103/31 66/104/32 64/102/30
f 65/103/31 67/105/33 68/106/34 66/104/32
f 67/105/33 35/72/1 38/71/4 68/106/34
s 2
f 1/37/35 18/38/36 19/39/37 2/40/38
f 2/40/38 19/39/37 20/41/39 3/42/40
f 3/42/40 20/41/39 21/43/41 4/107/42
f 4/44/42 21/108/41 22/45/43 5/46/44
f 5/46/44 22/45/43 23/47/45 6/48/46
f 6/48/46 23/47/45 24/49/47 7/50/48
f 7/50/48 24/49/47 25/51/49 8/52/50
f 8/52/50 25/51/49 26/53/51 9/54/52
f 9/54/52 26/53/51 27/55/53 10/56/54
f 10/56/54 27/55/53 28/57/55 11/58/56
f 11/58/56 28/57/55 29/59/57 12/60/58
f 12/60/58 29/59/57 30/61/59 13/62/60
f 30/61/59 31/63/61 14/64/62 13/62/60
f 14/64/62 31/63/61 32/65/63 15/66/64
f 15/66/64 32/65/63 33/67/65 16/68/66
f 16/68/66 33/67/65 34/69/67 17/70/68
f 17/70/68 34/69/67 18/38/36 1/37/35
s 3
f 1/1/69 2/2/70 36/74/71 35/73/72
s 4
f 19/20/73 18/19/74 38/76/75 37/75/76
s 3
f 2/2/70 3/3/77 39/77/78 36/74/71
s 4
f 20/21/79 19/20/73 37/75/76 40/78/80
s 3
f 3/3/77 4/4/81 41/79/82 39/77/78
s 4
f 21/22/83 20/21/79 40/78/80 42/80/84
s 3
f 4/4/81 5/5/85 43/81/86 41/79/82
s 4
f 22/23/87 21/22/83 42/80/84 44/82/88
s 3
f 5/5/85 6/6/89 45/83/90 43/81/86
s 4
f 23/24/91 22/23/87 44/82/88 46/84/92
s 3
f 6/6/89 7/7/93 47/85/94 45/83/90
s 4
f 24/25/95 23/24/91 46/84/92 48/86/96
s 3
f 7/7/93 8/8/97 49/87/98 47/85/94
s 4
f 25/26/99 24/25/95 48/86/96 50/88/100
s 3
f 8/8/97 9/9/101 51/89/102 49/87/98
s 4
f 26/27/103 25/26/99 50/88/100 52/90/104
s 3
f 9/9/101 10/10/105 53/91/106 51/89/102
s 4
f 27/28/107 26/27/103 52/90/104 54/92/108
s 3
f 10/10/105 11/11/109 55/93/110 53/91/106
s 4
f 28/29/111 27/28/107 54/92/108 56/94/112
s 3
f 11/11/109 12/12/113 57/95/114 55/93/110
s 4
f 29/30/115 28/29/111 56/94/112 58/96/116
s 3
f 12/12/113 13/13/117 59/97/118 57/95/114
s 4
f 30/31/119 29/30/115 58/96/116 60/98/120
s 3
f 13/13/117 14/14/121 61/99/122 59/97/118
s 4
f 31/32/123 30/31/119 60/98/120 62/100/124
s 3
f 14/14/121 15/15/125 63/101/126 61/99/122
s 4
f 32/33/127 31/32/123 62/100/124 64/102/128
s 3
f 15/15/125 16/16/129 65/103/130 63/101/126
s 4
f 33/34/131 32/33/127 64/102/128 66/104/132
s 3
f 16/16/129 17/17/133 67/105/134 65/103/130
s 4
f 34/35/135 33/34/131 66/104/132 68/106/136
s 3
f 17/17/133 1/18/69 35/72/72 67/105/134
s 4
f 18/36/74 34/35/135 68/106/136 38/71/75
